<?xml version="1.0" standalone="no"?><!DOCTYPE svg PUBLIC "-//W3C//DTD SVG 1.1//EN" "http://www.w3.org/Graphics/SVG/1.1/DTD/svg11.dtd"><svg t="1571801204733" class="icon" viewBox="0 0 1024 1024" version="1.1" xmlns="http://www.w3.org/2000/svg" p-id="2164" xmlns:xlink="http://www.w3.org/1999/xlink" width="128" height="128"><defs><style type="text/css"></style></defs><path d="M762.88 937.984q-43.008 0-81.408-16.384t-67.072-45.056-45.056-67.072-16.384-81.408 16.384-81.408 45.056-66.56 67.072-44.544 81.408-16.384 81.408 16.384 66.56 44.544 44.544 66.56 16.384 81.408-16.384 81.408-44.544 67.072-66.56 45.056-81.408 16.384zM866.304 694.272l-75.776 0 0-70.656q0-14.336-9.216-24.576t-23.552-10.24-22.528 10.24-8.192 24.576l0 70.656-66.56 0q-14.336 0-24.576 10.24t-10.24 24.576 10.24 21.504 24.576 7.168l66.56 0 0 72.704q0 14.336 8.192 24.576t22.528 10.24 23.552-10.24 9.216-24.576l0-72.704 75.776 0 0 2.048q14.336 0 24.576-8.192t10.24-22.528-10.24-24.576-24.576-10.24zM613.376 439.296q-4.096 16.384-8.192 29.696-4.096 11.264-10.24 23.04t-13.312 17.92q-9.216 7.168-12.8 15.36t-6.144 16.896-5.632 17.92-10.24 18.432q-23.552 30.72-35.328 59.392t-16.384 55.296-2.56 52.736 8.192 50.688q4.096 18.432 12.288 38.4t24.064 40.96 40.448 40.96 61.44 38.4q-24.576 5.12-57.344 9.216-27.648 3.072-68.096 5.632t-92.672 2.56q-26.624 0-61.952-2.048t-72.704-5.12-73.728-7.168-66.56-8.704-51.2-9.728-26.112-9.216q-9.216-8.192-14.336-45.568t3.072-97.792q5.12-33.792 27.136-51.712t51.712-28.16 61.952-18.944 56.832-24.064q19.456-12.288 29.696-23.04t14.336-22.016 4.096-23.552-1.024-26.624q-2.048-21.504-14.848-33.792t-27.136-24.576q-8.192-6.144-14.336-18.432t-10.24-23.552q-5.12-13.312-8.192-29.696-7.168-2.048-13.312-6.144-5.12-4.096-11.264-12.288t-11.264-24.576q-5.12-15.36-3.584-28.672t5.632-22.528q4.096-11.264 11.264-19.456 0-34.816 4.096-69.632 4.096-29.696 12.8-63.488t28.16-60.416q18.432-25.6 39.424-41.984t43.52-25.6 45.056-12.8 43.008-3.584q26.624 0 51.2 6.144t45.568 16.384 37.376 23.04 26.624 26.112q23.552 29.696 34.304 65.536t15.872 67.584q5.12 36.864 4.096 73.728 6.144 5.12 10.24 12.288 4.096 6.144 6.144 16.384t0 25.6q-2.048 19.456-8.192 30.72t-13.312 17.408q-8.192 7.168-17.408 10.24z" p-id="2165"></path></svg>