<?xml version="1.0" standalone="no"?><!DOCTYPE svg PUBLIC "-//W3C//DTD SVG 1.1//EN" "http://www.w3.org/Graphics/SVG/1.1/DTD/svg11.dtd"><svg t="1588823571192" class="icon" viewBox="0 0 1024 1024" version="1.1" xmlns="http://www.w3.org/2000/svg" p-id="1866" xmlns:xlink="http://www.w3.org/1999/xlink"><defs><style type="text/css"></style></defs><path d="M903.04 953.6H631.04a85.76 85.76 0 0 1-86.4-85.76v-192a86.4 86.4 0 0 1 86.4-83.84h272a87.04 87.04 0 0 1 86.4 86.4v192a86.4 86.4 0 0 1-86.4 83.2z m-272-295.04a20.48 20.48 0 0 0-20.48 19.84v192a20.48 20.48 0 0 0 20.48 19.84h272a19.84 19.84 0 0 0 19.84-19.84v-192a19.84 19.84 0 0 0-19.84-19.84z" p-id="1867"></path><path d="M879.36 655.36a32.64 32.64 0 0 1-32.64-33.28V544.64a81.92 81.92 0 1 0-163.2 0v77.44a33.28 33.28 0 1 1-64 0V544.64a147.84 147.84 0 1 1 295.04 0v77.44a33.28 33.28 0 0 1-35.2 33.28z" p-id="1868"></path><path d="M766.72 753.28m-46.08 0a46.08 46.08 0 1 0 92.16 0 46.08 46.08 0 1 0-92.16 0Z" p-id="1869"></path><path d="M768 869.76a33.28 33.28 0 0 1-33.28-33.28v-57.6a33.28 33.28 0 0 1 64 0v57.6a32.64 32.64 0 0 1-30.72 33.28zM496 264.96c-45.44 0-448 0-448-128s401.92-128 448-128 448 0 448 128-401.92 128-448 128z m-378.24-128c27.52 23.68 163.84 60.16 378.24 60.16s350.72-36.48 378.24-60.16c-27.52-23.68-163.84-60.8-378.24-60.8s-350.72 39.04-378.24 62.72zM407.68 512C298.24 505.6 48.64 482.56 48.64 384a33.28 33.28 0 1 1 64 0c8.32 10.88 96 48.64 293.76 58.24a32 32 0 0 1 31.36 34.56 32.64 32.64 0 0 1-30.08 35.2zM360.32 755.2C216.96 744.32 48.64 714.24 48.64 634.24a33.28 33.28 0 0 1 64 0c7.04 8.96 79.36 42.24 247.68 55.04a33.28 33.28 0 0 1 0 64z" p-id="1870"></path><path d="M427.52 1006.72c-113.28-3.84-377.6-24.96-377.6-128V138.88a33.28 33.28 0 0 1 64 0v743.04c10.24 14.08 113.92 51.2 313.6 58.88a33.28 33.28 0 0 1 32 34.56 32.64 32.64 0 0 1-32 31.36zM910.08 352a32.64 32.64 0 0 1-32.64-32V138.88a33.28 33.28 0 1 1 64 0V320a33.28 33.28 0 0 1-31.36 32z" p-id="1871"></path></svg>