<?xml version="1.0" standalone="no"?><!DOCTYPE svg PUBLIC "-//W3C//DTD SVG 1.1//EN" "http://www.w3.org/Graphics/SVG/1.1/DTD/svg11.dtd"><svg t="1577262567335" class="icon" viewBox="0 0 1024 1024" version="1.1" xmlns="http://www.w3.org/2000/svg" p-id="16304" data-spm-anchor-id="a313x.7781069.0.i19" xmlns:xlink="http://www.w3.org/1999/xlink" width="128" height="128"><defs><style type="text/css"></style></defs><path d="M512 0C229.627709 0 0 229.627709 0 512S229.627709 1024 512 1024 1024 794.372291 1024 512 794.372291 0 512 0z m0 996.655196c-267.269721 0-484.655196-217.385475-484.655196-484.655196s217.385475-484.655196 484.655196-484.655196 484.655196 217.385475 484.655196 484.655196-217.385475 484.655196-484.655196 484.655196z m241.641117-726.86838c-49.541006 0-89.928939 40.387933-89.928938 89.928938 0 21.395307 7.551285 41.074413 20.022346 56.520224l-44.850056 65.101229c-3.089162-1.029721-6.292737-1.945028-9.610726-2.631509-23.454749-5.148603-47.595978-0.800894-67.732737 12.242235-0.572067 0.34324-1.144134 0.800894-1.716202 1.258547l-49.998659-50.341899c7.894525-13.386369 12.471061-28.946592 12.471062-45.536536 0-49.541006-40.387933-89.928939-89.928939-89.928939s-89.928939 40.387933-89.928938 89.928939c0 23.225922 8.924246 44.392402 23.569162 60.410279l-70.135419 121.392626c-6.178324-1.372961-12.585475-2.059441-19.221453-2.059442-49.541006 0-89.928939 40.387933-89.928938 89.928939s40.387933 89.928939 89.928938 89.928938 89.928939-40.387933 89.928939-89.928938c0-23.225922-8.924246-44.392402-23.454749-60.410279l70.135419-121.392626c6.178324 1.372961 12.585475 2.059441 19.221453 2.059441 13.043128 0 25.51419-2.860335 36.726703-7.894525l56.863464 57.092291c-1.372961 3.890056-2.745922 7.894525-3.546815 12.013407-10.526034 48.396872 20.365587 96.450503 68.762458 106.976537 6.407151 1.372961 12.814302 2.059441 19.107039 2.059441 41.417654 0 78.716425-28.832179 87.869497-70.821899 5.606257-25.971844-0.68648-51.829274-15.216983-71.85162l46.451843-67.618324c7.665698 2.173855 15.78905 3.432402 24.255643 3.432402 49.541006 0 89.928939-40.387933 89.928938-89.928939s-40.502346-89.928939-90.043352-89.928938zM276.880447 701.239777c-19.450279 0-35.353743-15.78905-35.353743-35.353743 0-19.450279 15.903464-35.353743 35.353743-35.353743s35.353743 15.78905 35.353743 35.353743c-0.114413 19.564693-15.903464 35.353743-35.353743 35.353743z m155.602235-269.557989c-19.450279 0-35.353743-15.78905-35.353743-35.353743s15.903464-35.353743 35.353743-35.353743 35.353743 15.78905 35.353743 35.353743-15.903464 35.353743-35.353743 35.353743z m212.351284 142.330279c-4.118883 18.992626-22.997095 31.120447-41.98972 27.001564-18.992626-4.118883-31.120447-22.997095-27.001564-41.98972 3.546816-16.475531 18.306145-27.802458 34.552849-27.802458 2.517095 0 5.03419 0.228827 7.551285 0.800893 18.878212 4.118883 31.006034 22.997095 26.88715 41.989721z m108.807151-178.94257c-19.450279 0-35.353743-15.78905-35.353743-35.353743s15.78905-35.353743 35.353743-35.353743 35.353743 15.78905 35.353743 35.353743-15.903464 35.353743-35.353743 35.353743z" p-id="16305"></path></svg>