<?xml version="1.0" standalone="no"?><!DOCTYPE svg PUBLIC "-//W3C//DTD SVG 1.1//EN" "http://www.w3.org/Graphics/SVG/1.1/DTD/svg11.dtd"><svg t="1571471511110" class="icon" viewBox="0 0 1024 1024" version="1.1" xmlns="http://www.w3.org/2000/svg" p-id="2531" xmlns:xlink="http://www.w3.org/1999/xlink" width="128" height="128"><defs><style type="text/css"></style></defs><path d="M538.229 225.071l322.441 0.03c46.887 0 81.569 34.381 84.651 82.355v487.122c0 46.889-37.765 86.494-84.651 86.494H163.763c-46.887 0-84.651-38.579-84.651-86.494V225.102c0-46.887 37.765-86.494 84.651-86.494h208.153c81.632-0.001 81.632 86.494 166.313 86.463z m113.199 377.577h-15.469c-17.098 0-30.935 13.837-30.935 30.936v92.809c0 17.1 13.837 30.936 30.935 30.936h92.81c17.098 0 30.938-13.836 30.938-30.936v-92.809c0-17.099-13.84-30.936-30.938-30.936H713.3v-61.872c0-17.1-13.837-30.936-30.935-30.936H527.684v-30.936h15.469c17.098 0 30.935-13.836 30.935-30.936v-92.81c0-17.098-13.837-30.936-30.935-30.936h-92.81c-17.098 0-30.934 13.838-30.934 30.936v92.81c0 17.1 13.836 30.936 30.934 30.936h15.469v30.936H342.068c-17.098 0-30.938 13.836-30.938 30.936v61.872h-15.466c-17.101 0-30.938 13.837-30.938 30.936v92.809c0 17.1 13.836 30.936 30.938 30.936h92.807c17.101 0 30.938-13.836 30.938-30.936v-92.809c0-17.099-13.837-30.936-30.938-30.936h-15.466v-30.936h278.423v30.936z" p-id="2532"></path></svg>