<?xml version="1.0" standalone="no"?><!DOCTYPE svg PUBLIC "-//W3C//DTD SVG 1.1//EN" "http://www.w3.org/Graphics/SVG/1.1/DTD/svg11.dtd"><svg t="1583396678341" class="icon" viewBox="0 0 1024 1024" version="1.1" xmlns="http://www.w3.org/2000/svg" p-id="6823" xmlns:xlink="http://www.w3.org/1999/xlink" width="128" height="128"><defs><style type="text/css"></style></defs><path d="M448.379519 892.285143H229.405295c-76.147284 0-138.071635-61.926398-138.071635-138.072659V201.924919c0-76.148307 61.924351-138.073682 138.071635-138.073682H724.524836c76.146261 0 138.072659 61.925375 138.072659 138.073682v276.143271H793.557072V201.924919c0-38.039361-30.927383-69.036329-69.033259-69.036329H229.405295c-38.038338 0-69.035306 30.996968-69.035306 69.036329v552.287565c0 38.1069 30.996968 69.036329 69.035306 69.036329h218.974224v69.03633z" p-id="6824"></path><path d="M229.405295 270.961248h495.118518v69.035306H229.405295v-69.035306zM932.665317 911.338081l-98.097202-98.099249c17.534352-26.993794 28.02938-59.09491 28.02938-93.543489 0-94.925976-77.664847-172.5898-172.590824-172.589801S517.417895 624.77039 517.417895 719.695343c0 94.92393 77.663824 172.5898 172.588776 172.5898 35.622312 0 68.759013-10.909467 96.374978-29.617552l97.478102 97.480149 48.805566-48.809659z m-242.659669-88.089268c-57.091276 0-103.555517-46.461171-103.555517-103.55347 0-57.093323 46.464241-103.554494 103.555517-103.554494S793.557072 662.60202 793.557072 719.695343c0 57.092299-46.460148 103.553471-103.551424 103.55347zM229.405295 409.032884h495.118518v69.036329H229.405295v-69.036329zM229.405295 547.105542h218.974224v69.035307H229.405295v-69.035307z" p-id="6825"></path></svg>