<?xml version="1.0" standalone="no"?><!DOCTYPE svg PUBLIC "-//W3C//DTD SVG 1.1//EN" "http://www.w3.org/Graphics/SVG/1.1/DTD/svg11.dtd"><svg t="1577260332251" class="icon" viewBox="0 0 1024 1024" version="1.1" xmlns="http://www.w3.org/2000/svg" p-id="3757" xmlns:xlink="http://www.w3.org/1999/xlink" width="128" height="128"><defs><style type="text/css"></style></defs><path d="M692.9 439.7h72.3c19.9 0 36.2-16.3 36.2-36.2 0-19.9-16.3-36.2-36.2-36.2h-72.3c-19.9 0-36.2 16.3-36.2 36.2 0 19.9 16.3 36.2 36.2 36.2zM692.9 602.4h72.3c19.9 0 36.2-16.3 36.2-36.2 0-19.9-16.3-36.2-36.2-36.2h-72.3c-19.9 0-36.2 16.3-36.2 36.2 0 20 16.3 36.2 36.2 36.2zM692.9 765.2h72.3c19.9 0 36.2-16.3 36.2-36.2 0-19.9-16.3-36.2-36.2-36.2h-72.3c-19.9 0-36.2 16.3-36.2 36.2 0 19.9 16.3 36.2 36.2 36.2z" p-id="3758"></path><path d="M855.7 204.5H602.4v-36.2c0-40-32.4-72.3-72.3-72.3H168.3c-40 0-72.3 32.4-72.3 72.3v687.3c0 40 32.4 72.3 72.3 72.3h687.2c40 0 72.3-32.4 72.3-72.3V276.9c0.2-40-32.2-72.4-72.1-72.4z m-361.8 615H204.5V674.8c0-40 32.4-72.3 72.3-72.3h144.7c40 0 72.3 32.4 72.3 72.3v144.7z m-36.2-343.7h-217c-19.9 0-36.2-16.3-36.2-36.2 0-19.9 16.3-36.2 36.2-36.2h217c19.9 0 36.2 16.3 36.2 36.2 0 19.9-16.3 36.2-36.2 36.2z m0-180.8h-217c-19.9 0-36.2-16.3-36.2-36.2 0-19.9 16.3-36.2 36.2-36.2h217c19.9 0 36.2 16.3 36.2 36.2 0 19.9-16.3 36.2-36.2 36.2z m398 560.7H602.4V276.9h253.2v578.8z" p-id="3759"></path></svg>