<?xml version="1.0" standalone="no"?><!DOCTYPE svg PUBLIC "-//W3C//DTD SVG 1.1//EN" "http://www.w3.org/Graphics/SVG/1.1/DTD/svg11.dtd"><svg t="1577259947686" class="icon" viewBox="0 0 1024 1024" version="1.1" xmlns="http://www.w3.org/2000/svg" p-id="3271" xmlns:xlink="http://www.w3.org/1999/xlink" width="128" height="128"><defs><style type="text/css"></style></defs><path d="M227.555556 277.504v186.88a341.333333 341.333333 0 0 0 140.572444 276.024889L512 845.084444l143.872-104.675555A341.333333 341.333333 0 0 0 796.444444 464.384V277.504l-284.444444-108.088889-284.444444 108.088889z m-56.888889-39.253333L512 108.657778l341.333333 129.706666v226.076445a398.222222 398.222222 0 0 1-164.010666 321.991111L512 915.456l-177.322667-128.967111A398.222222 398.222222 0 0 1 170.666667 464.384V238.250667z" p-id="3272"></path><path d="M512 540.444444a113.777778 113.777778 0 1 1 0-227.555555 113.777778 113.777778 0 0 1 0 227.555555z m0-56.888888a56.888889 56.888889 0 1 0 0-113.777778 56.888889 56.888889 0 0 0 0 113.777778z" p-id="3273"></path><path d="M483.555556 512m28.444444 0l0 0q28.444444 0 28.444444 28.444444l0 145.863112q0 28.444444-28.444444 28.444444l0 0q-28.444444 0-28.444444-28.444444l0-145.863112q0-28.444444 28.444444-28.444444Z" p-id="3274"></path><path d="M597.333333 585.443556m0 28.444444l0 0q0 28.444444-28.444444 28.444444l-54.044445 0q-28.444444 0-28.444444-28.444444l0 0q0-28.444444 28.444444-28.444444l54.044445 0q28.444444 0 28.444444 28.444444Z" p-id="3275"></path></svg>