<?xml version="1.0" standalone="no"?><!DOCTYPE svg PUBLIC "-//W3C//DTD SVG 1.1//EN" "http://www.w3.org/Graphics/SVG/1.1/DTD/svg11.dtd"><svg t="1569478627487" class="icon" viewBox="0 0 1071 1024" version="1.1" xmlns="http://www.w3.org/2000/svg" p-id="4970" xmlns:xlink="http://www.w3.org/1999/xlink" width="133.875" height="128"><defs><style type="text/css"></style></defs><path d="M940.194373 0h-811.867007C57.616368 0 0 57.616368 0 128.327366v576.163683c0 70.710997 57.616368 128.327366 128.327366 128.327365h811.867007c70.710997 0 128.327366-57.616368 128.327366-128.327365v-576.163683c2.618926-70.710997-54.997442-128.327366-128.327366-128.327366z m57.616369 704.491049c0 31.42711-26.189258 54.997442-54.997443 54.997442H130.946292c-31.42711 0-54.997442-26.189258-54.997443-54.997442v-576.163683c0-31.42711 26.189258-54.997442 54.997443-54.997443h811.867007c31.42711 0 54.997442 26.189258 54.997443 54.997443v576.163683zM906.148338 948.051151h-204.276215v-20.951407c0-18.332481-13.094629-31.42711-31.42711-31.42711H377.12532c-18.332481 0-31.42711 13.094629-31.42711 31.42711v20.951407H144.040921c-20.951407 0-36.664962 15.713555-36.664962 36.664962S123.089514 1021.381074 144.040921 1021.381074h762.107417c20.951407 0 36.664962-15.713555 36.664961-36.664961s-15.713555-36.664962-36.664961-36.664962z"></path><path d="M350.936061 274.987212c-34.046036 0-60.235294 26.189258-60.235294 60.235294s26.189258 60.235294 60.235294 60.235295 60.235294-26.189258 60.235294-60.235295-26.189258-60.235294-60.235294-60.235294z m0 96.900256c-20.951407 0-36.664962-15.713555-36.664961-36.664962s15.713555-36.664962 36.664961-36.664961 36.664962 15.713555 36.664962 36.664961-18.332481 36.664962-36.664962 36.664962zM893.053708 264.511509l-20.951406-2.618926v-5.237852l15.713555-13.094629c2.618926-5.237852 5.237852-7.856777 7.856777-13.094629 2.618926-5.237852 0-10.475703-2.618926-15.713555l-13.094629-23.570332c-7.856777-7.856777-18.332481-13.094629-26.189258-7.856778l-20.951407 7.856778-2.618926-2.618926 7.856778-20.951407c2.618926-5.237852 2.618926-7.856777 0-13.094629s-5.237852-10.475703-7.856778-13.094629l-23.570332-13.094629c-10.475703-5.237852-20.951407-2.618926-26.189258 5.237851l-13.094629 15.713555h-5.237852l-5.237852-20.951406c0-10.475703-10.475703-18.332481-18.332481-18.332481h-28.808184c-10.475703 0-18.332481 7.856777-18.332481 18.332481l-2.618925 20.951406h-5.237852l-13.094629-15.713555c-5.237852-7.856777-15.713555-10.475703-26.189259-5.237851l-23.570332 13.094629c-5.237852 2.618926-7.856777 7.856777-7.856777 13.094629v13.094629l7.856777 20.951407-2.618926 2.618926-23.570332-7.856778h-13.094629c-5.237852 2.618926-10.475703 5.237852-13.09463 7.856778l-13.094629 23.570332c-2.618926 5.237852-2.618926 10.475703-2.618926 15.713555 2.618926 5.237852 5.237852 10.475703 7.856778 10.475703l15.713555 15.713555v5.237852l-20.951407 5.237852c-10.475703 0-18.332481 10.475703-18.332481 18.332481V314.2711c0 10.475703 7.856777 18.332481 18.332481 18.332481l20.951407 2.618925v5.237852l-15.713555 13.094629c-2.618926 2.618926-5.237852 5.237852-7.856778 10.475704-2.618926 5.237852 0 10.475703 2.618926 15.713555l13.094629 23.570332c5.237852 10.475703 18.332481 13.094629 23.570333 7.856777l20.951407-7.856777 2.618925 2.618926-7.856777 20.951406c-2.618926 5.237852-2.618926 7.856777 0 13.09463s5.237852 10.475703 7.856777 13.094629l23.570333 13.094629c5.237852 2.618926 10.475703 2.618926 15.713555 2.618926 5.237852-2.618926 10.475703-5.237852 10.475703-7.856778l13.094629-15.713555h5.237852l5.237852 20.951407c0 10.475703 10.475703 18.332481 18.33248 18.332481h28.808185c10.475703 0 18.332481-7.856777 18.33248-18.332481l2.618926-20.951407h5.237852l13.094629 15.713555c2.618926 2.618926 5.237852 5.237852 10.475703 7.856778 5.237852 2.618926 10.475703 0 15.713555-2.618926l23.570333-13.094629c10.475703-5.237852 13.094629-18.332481 7.856777-23.570333l-7.856777-20.951406 2.618926-2.618926 20.951406 7.856777c7.856777 5.237852 20.951407 0 26.189259-7.856777l13.094629-23.570333c5.237852-10.475703 2.618926-20.951407-5.237852-26.189258l-15.713555-13.094629v-5.237852l20.951407-5.237851c10.475703 0 18.332481-10.475703 18.332481-18.332481v-28.808184c5.237852-13.094629-2.618926-20.951407-13.09463-20.951407z m-10.475703 39.283887l-34.046036 7.856778-2.618926 10.475703c0 5.237852-2.618926 10.475703-5.237851 18.332481l-2.618926 10.475703 26.189258 20.951407-5.237851 10.475703-20.951407-7.856777-10.475703-7.856778-10.475704 10.475704c-5.237852 5.237852-7.856777 10.475703-13.094629 13.094629l-10.475703 7.856777 7.856777 10.475704 7.856778 20.951406-10.475703 5.237852-15.713555-15.713555-5.237852-10.475703-13.094629 5.237851c-7.856777 2.618926-13.094629 5.237852-18.332481 5.237852l-10.475703 2.618926-5.237852 34.046036h-13.094629l-7.856778-34.046036-7.856777-2.618926c-5.237852 0-10.475703-2.618926-18.332481-5.237852l-13.094629-5.237851-5.237852 10.475703-13.094629 15.713555-10.475703-5.237852 7.856777-20.951406 7.856778-10.475704-13.09463-5.237851c-5.237852-5.237852-10.475703-7.856777-13.094629-13.094629l-7.856777-13.09463-10.475703 5.237852-20.951407 7.856778-5.237852-10.475704 15.713555-15.713555 10.475704-7.856777-2.618926-10.475704c-2.618926-7.856777-5.237852-13.094629-5.237852-18.33248l-2.618926-10.475704-34.046036-5.237851V288.081841l34.046036-7.856777 2.618926-10.475703c0-5.237852 2.618926-10.475703 5.237852-18.332481l5.237851-13.094629H602.352941l-15.713555-13.09463 5.237852-10.475703 20.951407 7.856778 10.475703 5.237851 7.856777-10.475703c5.237852-5.237852 7.856777-10.475703 13.094629-13.094629l10.475704-7.856778-7.856778-10.475703-7.856777-20.951407 10.475703-7.856777 15.713555 15.713555 5.237852 10.475703 13.094629-5.237851c7.856777-2.618926 13.094629-5.237852 18.332481-5.237852l10.475703-2.618926 5.237852-34.046036h13.094629l7.856777 34.046036 10.475704 2.618926c5.237852 0 10.475703 2.618926 18.332481 5.237852l10.475703 2.618925 20.951407-26.189258 10.475703 5.237852-7.856778 20.951406-7.856777 10.475704 10.475703 7.856777c5.237852 5.237852 10.475703 7.856777 13.094629 13.094629l10.475704 10.475704 10.475703-2.618926 20.951407-7.856778 5.237851 10.475704-15.713555 15.713555-10.475703 5.237851 5.237852 13.094629c2.618926 7.856777 5.237852 13.094629 5.237851 18.332481l2.618926 10.475704 34.046036 5.237851v13.094629z"></path><path d="M725.442455 225.227621c-39.283887 0-70.710997 31.42711-70.710997 70.710998s31.42711 70.710997 70.710997 70.710997 70.710997-31.42711 70.710998-70.710997-31.42711-70.710997-70.710998-70.710998z m0 115.232737c-23.570332 0-41.902813-18.332481-41.902813-41.902813s18.332481-41.902813 41.902813-41.902814 41.902813 18.332481 41.902814 41.902814-20.951407 41.902813-41.902814 41.902813zM591.877238 531.641944l-10.475703-2.618926v-2.618926l7.856777-7.856777c2.618926-2.618926 5.237852-2.618926 5.237852-7.856778v-7.856777l-7.856778-13.09463c-2.618926-2.618926-2.618926-5.237852-7.856777-5.237851h-7.856778l-10.475703 5.237851-2.618926-2.618925 2.618926-10.475704c2.618926-2.618926 2.618926-5.237852 0-7.856777 0-2.618926-2.618926-5.237852-5.237852-7.856778l-13.094629-7.856777c-5.237852-2.618926-13.094629 0-13.094629 2.618926l-7.856778 10.475703h-2.618925l-2.618926-10.475703c0-5.237852-5.237852-10.475703-10.475704-10.475704h-15.713555c-5.237852 0-10.475703 5.237852-10.475703 10.475704l-2.618926 13.094629h-2.618926l-7.856777-7.856778c-2.618926-5.237852-10.475703-7.856777-15.713555-5.237851l-2.618926 2.618925v-10.475703l-7.856777-18.332481 2.618925-2.618926 15.713555 5.237852c7.856777 5.237852 18.332481 2.618926 23.570333-5.237852l13.094629-20.951406c5.237852-7.856777 2.618926-18.332481-5.237852-20.951407l-13.094629-10.475703v-2.618926l15.713555-2.618926c10.475703 0 15.713555-7.856777 15.713555-15.713555v-23.570332c0-7.856777-7.856777-15.713555-15.713555-15.713555l-18.332481-2.618926v-2.618926l13.09463-10.475703c2.618926-2.618926 7.856777-5.237852 7.856777-10.475704s0-7.856777-2.618926-13.094629l-13.094629-20.951406c-2.618926-2.618926-5.237852-7.856777-10.475703-7.856778h-10.475704l-18.33248 7.856778-2.618926-2.618926 7.856777-23.570333c2.618926-2.618926 2.618926-7.856777 2.618926-13.094629s-2.618926-7.856777-7.856777-10.475703l-20.951407-13.094629c-2.618926-2.618926-7.856777-2.618926-13.094629-2.618926s-7.856777 2.618926-7.856778 5.237852l-13.094629 15.713554h-2.618926l-2.618925-15.713554c0-10.475703-7.856777-15.713555-15.713555-15.713555H340.460358c-10.475703 0-15.713555 7.856777-15.713555 15.713555l-5.237852 15.713554h-2.618925l-10.475704-13.094629c-2.618926-2.618926-5.237852-7.856777-10.475703-7.856777s-7.856777 0-13.094629 2.618926l-23.570333 13.094629c-7.856777 5.237852-10.475703 15.713555-5.237851 20.951406l7.856777 18.332481-2.618926 2.618926-18.332481-5.237852c-2.618926-2.618926-7.856777-2.618926-13.094629-2.618925s-7.856777 2.618926-10.475703 7.856777l-13.094629 20.951407c-2.618926 7.856777 0 18.332481 5.237851 20.951406l15.713555 10.475704v2.618926l-15.713555 2.618925c-10.475703 0-15.713555 7.856777-15.713554 15.713555v23.570333c0 7.856777 7.856777 15.713555 15.713554 15.713555l18.332481 2.618926v2.618926l-13.094629 10.475703c-7.856777 5.237852-10.475703 15.713555-5.237852 23.570332l13.09463 20.951407c2.618926 2.618926 5.237852 7.856777 10.475703 7.856777h10.475703l18.332481-7.856777 2.618926 2.618926-10.475703 23.570332c-2.618926 2.618926-2.618926 7.856777-2.618926 13.094629s2.618926 7.856777 7.856777 10.475704l20.951407 13.094629c7.856777 5.237852 18.332481 2.618926 20.951407-5.237852l13.094629-13.094629h2.618926l2.618925 15.713555c0 10.475703 7.856777 15.713555 15.713555 15.713555h23.570333c10.475703 0 15.713555-7.856777 15.713555-15.713555l2.618926-18.332481h2.618926l10.475703 13.094629c2.618926 2.618926 5.237852 7.856777 10.475703 7.856778s7.856777 0 13.094629-2.618926l13.094629-7.856777v5.237851l5.237852 10.475704-2.618926 2.618925-10.475703-2.618925c-2.618926-2.618926-5.237852-2.618926-7.856778 0-2.618926 0-5.237852 2.618926-7.856777 5.237851l-7.856777 13.094629c-2.618926 2.618926-2.618926 5.237852 0 7.856778 0 2.618926 2.618926 5.237852 5.237851 5.237852l10.475703 7.856777v2.618926l-10.475703 2.618926c-5.237852 0-10.475703 5.237852-10.475703 10.475703v15.713555c0 5.237852 5.237852 10.475703 10.475703 10.475703l13.094629 2.618926v2.618926l-7.856777 7.856778c-2.618926 2.618926-5.237852 2.618926-5.237852 7.856777v7.856778l7.856778 13.094629c2.618926 2.618926 2.618926 5.237852 7.856777 5.237851h7.856778l10.475703-5.237851 2.618926 2.618926-2.618926 10.475703c-2.618926 2.618926-2.618926 5.237852 0 7.856777s2.618926 5.237852 5.237852 7.856778l13.094629 7.856777c5.237852 2.618926 13.094629 0 13.094629-2.618926l7.856777-10.475703h2.618926l2.618926 10.475703c0 5.237852 5.237852 10.475703 10.475703 10.475704h15.713555c5.237852 0 10.475703-5.237852 10.475704-10.475704l2.618926-13.094629h2.618925l7.856778 7.856778c2.618926 2.618926 2.618926 5.237852 7.856777 5.237851h7.856778l13.094629-7.856777c2.618926-2.618926 5.237852-2.618926 5.237852-7.856778v-7.856777l-5.237852-10.475703 2.618926-2.618926 10.475703 2.618926c5.237852 2.618926 13.094629 0 15.713555-5.237852l7.856778-13.094629c2.618926-5.237852 0-13.094629-2.618926-13.094629l-10.475703-7.856778v-2.618926l10.475703-2.618925c5.237852 0 10.475703-5.237852 10.475703-10.475704v-15.713555c0-2.618926-5.237852-7.856777-10.475703-7.856777z m-175.468031-99.519182l5.237852 18.332481-10.475704 5.237852-13.094629-15.713555-5.237851-7.856778-10.475704 2.618926c-5.237852 2.618926-10.475703 2.618926-15.713555 5.237852l-7.856777 2.618925-2.618926 28.808185h-10.475703l-5.237852-28.808185-7.856777-2.618925c-5.237852 0-10.475703-2.618926-15.713555-5.237852l-13.09463-5.237852-2.618925 10.475704-13.09463 15.713555-7.856777-5.237852 5.237852-18.332481 5.237851-7.856777-7.856777-7.856778c-5.237852-2.618926-7.856777-7.856777-13.094629-13.094629l-7.856778-7.856777-7.856777 5.237851-18.332481 7.856778-5.237852-10.475704 13.094629-13.094629 10.475704-5.237851-2.618926-10.475704c-2.618926-5.237852-2.618926-10.475703-5.237852-15.713555l-2.618926-7.856777-28.808184-5.237852v-10.475703l28.808184-5.237852 2.618926-7.856777c0-5.237852 2.618926-10.475703 5.237852-15.713555l2.618926-10.475704-7.856778-5.237851-15.713555-13.09463 5.237852-7.856777 18.332481 5.237852 7.856777 5.237851 7.856778-7.856777c2.618926-5.237852 7.856777-7.856777 13.094629-13.094629l7.856777-7.856778-5.237851-7.856777-5.237852-18.332481 7.856777-2.618926 13.09463 13.094629 5.237851 7.856778 7.856778-2.618926c5.237852-2.618926 10.475703-2.618926 15.713555-5.237852h10.475703l5.237852-28.808184h10.475703l5.237852 28.808184 7.856777 2.618926c5.237852 0 10.475703 2.618926 15.713555 5.237852l10.475704 2.618925 5.237851-7.856777 13.094629-15.713555 10.475704 5.237852-5.237852 18.33248-5.237852 7.856778 5.237852 7.856777c5.237852 2.618926 7.856777 7.856777 13.094629 13.09463l7.856778 7.856777 7.856777-5.237852 18.332481-7.856777 5.237852 10.475703-13.09463 13.094629-13.094629 2.618926 2.618926 10.475704c2.618926 5.237852 2.618926 10.475703 5.237852 15.713555l2.618926 7.856777 28.808184 5.237852v10.475703l-28.808184 5.237852-2.618926 7.856777c0 5.237852-2.618926 10.475703-5.237852 15.713555l-2.618926 10.475704 7.856778 5.237851 15.713555 13.094629-5.237852 10.475704-18.332481-7.856778-7.856777-5.237851-7.856778 7.856777c-2.618926 5.237852-7.856777 7.856777-13.094629 13.094629l-7.856777 7.856778 7.856777 7.856777z m170.230179 123.089514l-18.332481 2.618926v5.237852c0 2.618926-2.618926 7.856777-2.618925 10.475703l-2.618926 5.237852 15.713555 10.475703-2.618926 5.237852-13.094629-2.618926-5.237852-2.618926-7.856777 7.856778-7.856778 7.856777-5.237852 5.237852 5.237852 5.237851 5.237852 10.475704-5.237852 2.618925-7.856777-7.856777v-7.856777l-10.475704 5.237851c-2.618926 0-7.856777 2.618926-10.475703 2.618926h-5.237852l-2.618926 18.332481H497.595908l-2.618926-18.332481h-5.237852c-2.618926 0-7.856777-2.618926-10.475703-2.618926l-7.856777-2.618926-2.618926 5.237852-7.856778 10.475703-5.237851-2.618926 5.237851-10.475703 5.237852-5.237851-5.237852-5.237852-7.856777-7.856778-5.237852-5.237851-18.332481 7.856777-10.475703-10.475703 10.475703-7.856778 5.237852-2.618925-2.618926-7.856778c0-2.618926-2.618926-7.856777-2.618926-10.475703v-5.237852l-18.332481-2.618926v-7.856777l18.332481-2.618926v-5.237852c0-2.618926 2.618926-7.856777 2.618926-10.475703l2.618926-7.856778-7.856778-2.618925-7.856777-7.856778 2.618926-5.237852 10.475703 2.618926 5.237852 5.237852 5.237851-5.237852 7.856778-7.856777 5.237852-5.237852-2.618926-5.237852-5.237852-10.475703 5.237852-2.618926 7.856777 7.856778v10.475703l13.094629-5.237852c2.618926 0 7.856777-2.618926 10.475704-2.618925h5.237851l2.618926-18.332481h7.856778l2.618926 18.332481h5.237851c2.618926 0 7.856777 2.618926 10.475704 2.618925l5.237851 2.618926 5.237852-5.237851 5.237852-7.856778 5.237851 2.618926-5.237851 13.094629-2.618926 5.237852 5.237851 5.237851 7.856778 7.856778 5.237852 5.237852 5.237851-5.237852 10.475704-5.237852 2.618925 5.237852-7.856777 7.856777-7.856778 2.618926 2.618926 7.856778c0 2.618926 2.618926 7.856777 2.618926 10.475703v5.237852l18.332481 2.618926v5.237851z"></path><path d="M497.595908 510.690537c-20.951407 0-39.283887 18.332481-39.283888 39.283888s18.332481 39.283887 39.283888 39.283887 39.283887-18.332481 39.283887-39.283887-18.332481-39.283887-39.283887-39.283888z m0 65.473146c-13.094629 0-23.570332-10.475703-23.570333-23.570333s10.475703-23.570332 23.570333-23.570332 23.570332 10.475703 23.570332 23.570332-10.475703 23.570332-23.570332 23.570333z"></path></svg>