<?xml version="1.0" standalone="no"?><!DOCTYPE svg PUBLIC "-//W3C//DTD SVG 1.1//EN" "http://www.w3.org/Graphics/SVG/1.1/DTD/svg11.dtd"><svg t="1577262083305" class="icon" viewBox="0 0 1024 1024" version="1.1" xmlns="http://www.w3.org/2000/svg" p-id="14646" xmlns:xlink="http://www.w3.org/1999/xlink" width="132" height="132"><defs><style type="text/css"></style></defs><path d="M96.055706 382.620327l91.424222 0c8.816806 0 15.966647-7.121188 15.966647-15.905248 0-8.78099-7.150864-15.902178-15.966647-15.902178l-91.424222 0c-8.81783 0-15.966647 7.121188-15.966647 15.902178C80.08906 375.49914 87.2389 382.620327 96.055706 382.620327L96.055706 382.620327zM96.055706 382.620327" p-id="14647"></path><path d="M187.479929 498.509754l-91.424222 0c-8.81783 0-15.966647 7.121188-15.966647 15.902178 0 8.78406 7.14984 15.905248 15.966647 15.905248l91.424222 0c8.816806 0 15.966647-7.121188 15.966647-15.905248C203.447599 505.630942 196.296735 498.509754 187.479929 498.509754L187.479929 498.509754zM187.479929 498.509754" p-id="14648"></path><path d="M187.479929 645.660162l-91.424222 0c-8.81783 0-15.966647 7.120165-15.966647 15.905248 0 8.78099 7.14984 15.901155 15.966647 15.901155l91.424222 0c8.816806 0 15.966647-7.120165 15.966647-15.901155C203.447599 652.780327 196.296735 645.660162 187.479929 645.660162L187.479929 645.660162zM187.479929 645.660162" p-id="14649"></path><path d="M831.05664 169.996742 200.598714 169.996742c-39.304168 0-71.166853 31.732725-71.166853 70.874187l0 52.057633 32.42448 0 0-43.700291c0-30.444383 16.873296-47.24707 47.441499-47.24707l613.797477 0c30.569226 0 47.441499 16.802688 47.441499 47.24707l0 530.339694c0 30.443359-16.872273 47.24707-47.441499 47.24707L209.298863 826.815035c-30.568203 0-47.441499-16.803711-47.441499-47.24707L161.857365 735.862557 129.431861 735.862557l0 51.242058c0 39.141462 31.862685 70.871117 71.166853 70.871117l630.457926 0c39.304168 0 71.166853-31.729655 71.166853-70.871117L902.223492 240.87093C902.223492 201.728444 870.360807 169.996742 831.05664 169.996742L831.05664 169.996742zM831.05664 169.996742" p-id="14650"></path><path d="M308.308855 626.000404c17.452487-4.787026 47.51006-24.484647 47.51006-69.004607 0-39.84959-13.036921-57.425897-20.039405-66.855664l-0.873903-1.182942c-0.077771-0.11154-0.152473-0.207731-0.242524-0.310062-0.556679-1.665942-2.207271-8.456602 1.346671-22.970154 1.367137-5.63944 0.556679-12.132318-1.87879-17.412578-5.251607-11.481496-15.042601-32.854269-8.16803-48.938596 11.389398-27.581172 16.183588-29.66053 28.968775-35.211966 1.24127-0.529049 2.434445-1.173732 3.575432-1.898233 3.196809-2.034333 16.299221-6.89913 29.729092-6.89913 6.470365 0 11.846816 1.195222 16.159028 3.341095 1.116427-4.450359 2.463098-8.924253 4.312212-13.386892 1.572822-3.947915 3.245927-7.333012 4.89652-10.850116-8.068769-3.493567-16.793478-4.970198-25.365714-4.970198-18.786878 0-36.594453 6.440689-43.696198 10.955516-20.788465 9.026584-29.488615 17.368576-42.603307 49.075719-11.374048 26.630521 2.170432 55.536874 8.827039 70.076008-8.140401 33.213449 3.171226 44.652989 3.171226 44.652989 5.886057 8.045233 15.904225 19.685341 15.904225 52.785204 0 37.660738-29.119201 44.249807-29.119201 44.249807-23.644513 8.221242-55.134715 25.723871-55.134715 77.462233 0 0 0 12.93459 12.987802 12.93459l57.911968 0.01228c3.122107-9.592472 7.217379-18.257829 12.214183-25.869181l-56.18565-0.01228C276.410354 641.183198 291.744597 631.912044 308.308855 626.000404M761.913886 601.242534c0 0-29.122271-6.585999-29.122271-44.246737 0-33.099862 10.021238-44.738947 15.919575-52.785204 0 0 11.274788-11.43954 3.155876-44.652989 6.659677-14.539134 20.205181-43.445488 8.827039-70.079078-13.112646-31.704073-21.814842-40.049135-42.60126-49.072649-7.103792-4.514827-24.911366-10.958586-43.695175-10.958586-8.877181 0-17.906835 1.578961-26.189476 5.329379 3.311419 8.369621 6.100952 16.662495 8.105608 24.834618 0.329505-0.188288 0.684592-0.436952 1.014096-0.63138 4.426823-2.419096 10.18292-3.663436 17.069771-3.663436 13.44522 0 26.535353 4.864798 29.731138 6.89606 1.140986 0.727571 2.345418 1.372254 3.576455 1.901303 12.785188 5.551436 17.551748 7.629771 28.969798 35.207873 6.871501 16.087397-2.919493 37.46017-8.193613 48.941666-2.409886 5.279237-3.248997 11.773138-1.853208 17.412578 3.550873 14.513552 1.87879 21.301142 1.318018 22.970154-0.049119 0.099261-0.13917 0.195451-0.213871 0.310062l-0.876973 1.179872c-6.999414 9.429767-20.039405 27.006074-20.039405 66.858734 0 44.519959 30.060643 64.21758 47.51006 69.004607 16.578584 5.91164 31.898501 15.182794 35.795251 39.769772l-56.18872 0.01228c4.999874 7.611352 9.107425 16.275685 12.20395 25.868157l57.923224-0.01228c12.987802 0 12.987802-12.93459 12.987802-12.93459C817.046554 626.966405 785.554306 609.466845 761.913886 601.242534M634.904191 629.741611c0 0-46.574758-11.060917-46.574758-59.488883 0-42.540885 19.140942-57.523111 26.510794-67.868737 0 0 15.192004-13.231349 5.021364-55.955406 16.930601-23.408129 22.449291-61.530378 1.714038-108.586091-11.582803-27.498284-21.778003-42.568515-37.314861-51.311643-11.418051-6.440689-24.3772-8.821923-36.973076-8.821923-23.475667 0-45.735647 8.280594-54.637388 14.077623-25.978674 11.615549-43.428092 22.321378-59.829644 63.09399-14.21884 34.251082 2.701528 71.414493 11.022031 90.102111-10.146081 42.711777 3.933589 57.401338 3.933589 57.401338 7.40669 10.345626 26.507724 25.327852 26.507724 67.868737 0 48.427966-46.547129 59.488883-46.547129 59.488883-29.541827 10.590196-91.230818 30.882358-91.230818 100.726076 0 0 0 12.938684 12.987802 12.938684l363.656417 0c12.987802 0 12.987802-12.938684 12.987802-12.938684C726.135008 660.623969 664.442948 640.331807 634.904191 629.741611M363.505991 717.533097c6.063089-36.422538 38.101783-50.973952 70.824045-62.675458l1.026376-0.346901c23.350824-6.197142 64.902172-31.004131 64.902172-84.259032 0-45.170782-18.364253-67.206658-28.257577-79.053474-1.965771-2.405793-4.337795-5.462408-3.806699-4.787026-0.799202-1.749854-4.679579-11.872399 0.939395-35.468816 2.62785-11.057847-1.825578-17.108656-1.825578-17.108656-7.101745-15.882736-20.269649-45.455261-10.375302-69.345368 13.279445-33.04358 25.036209-39.562041 46.370097-49.112558 1.243317-0.553609 2.449795-1.198292 3.590781-1.938142 4.045129-2.625804 21.091364-9.859555 40.396035-9.859555 9.639544 0 17.754363 1.839905 24.200168 5.477758 7.710612 4.344958 15.117302 12.607132 26.305109 39.175231 20.875446 47.381124 7.645121 73.882708 0.988514 83.07609-4.412496 6.097882-5.936199 13.789051-4.197602 21.088294 5.161556 21.712511 1.813299 30.873148 0.951675 32.69668-0.230244 0.25992-3.348258 4.202719-4.922103 6.106068-9.868765 11.850909-28.257577 33.882692-28.257577 79.053474 0 53.254901 41.574884 78.06189 64.937988 84.259032l1.014096 0.346901c32.735565 11.70253 64.760956 26.252921 70.824045 62.678528L363.505991 717.536166 363.505991 717.533097zM363.505991 717.533097" p-id="14651"></path></svg>