<?xml version="1.0" standalone="no"?><!DOCTYPE svg PUBLIC "-//W3C//DTD SVG 1.1//EN" "http://www.w3.org/Graphics/SVG/1.1/DTD/svg11.dtd"><svg t="1577262324685" class="icon" viewBox="0 0 1024 1024" version="1.1" xmlns="http://www.w3.org/2000/svg" p-id="15018" xmlns:xlink="http://www.w3.org/1999/xlink" width="128" height="128"><defs><style type="text/css"></style></defs><path d="M849.28 60.16h-512a105.6 105.6 0 0 0-106.24 104.96v108.8H155.52a86.4 86.4 0 0 0-86.4 86.4v498.56a112.64 112.64 0 0 0 112.64 112.64h667.52a105.6 105.6 0 0 0 104.96-104.96v-704a105.6 105.6 0 0 0-104.96-102.4zM133.12 858.88V360.32a22.4 22.4 0 0 1 22.4-22.4h75.52v523.52a48.64 48.64 0 1 1-97.92 0z m757.12 7.68a40.96 40.96 0 0 1-40.96 40.96H283.52a111.36 111.36 0 0 0 11.52-48.64V165.12a40.96 40.96 0 0 1 40.96-40.96h512a40.96 40.96 0 0 1 40.96 40.96z" fill="#040C32" p-id="15019"></path><path d="M704 459.52a128 128 0 1 0-179.2 0A168.32 168.32 0 0 0 448 602.24a32 32 0 0 0 64 0 104.96 104.96 0 0 1 209.92 0 32 32 0 0 0 64 0A168.32 168.32 0 0 0 704 459.52zM552.32 371.2a64 64 0 1 1 64 64 64 64 0 0 1-64-64zM745.6 737.28h-262.4a32 32 0 1 0 0 64h262.4a32 32 0 0 0 0-64z" fill="#040C32" p-id="15020"></path></svg>