<?xml version="1.0" standalone="no"?><!DOCTYPE svg PUBLIC "-//W3C//DTD SVG 1.1//EN" "http://www.w3.org/Graphics/SVG/1.1/DTD/svg11.dtd"><svg t="1577329667959" class="icon" viewBox="0 0 1024 1024" version="1.1" xmlns="http://www.w3.org/2000/svg" p-id="7242" xmlns:xlink="http://www.w3.org/1999/xlink" width="16" height="16"><defs><style type="text/css"></style></defs><path d="M894.896108 98.217952 129.077286 98.217952c-35.222199 0-63.786769 28.547173-63.786769 63.777559l0 551.145555c0 35.211966 28.564569 63.794955 63.786769 63.794955l765.818823 0c35.247782 0 63.812351-28.582989 63.812351-63.794955L958.70846 161.996534C958.709483 126.766149 930.144914 98.217952 894.896108 98.217952zM909.728932 715.199958 111.148961 715.199958 111.148961 139.957589l798.579971 0L909.728932 715.199958z" p-id="7243"></path><path d="M413.078525 803.040562l-35.552727 108.398826c0 7.92039 7.861038 14.34266 17.553795 14.34266l233.841839 0c9.719362 0 17.563004-6.421246 17.563004-14.34266l-35.561937-108.398826L413.078525 803.040562z" p-id="7244"></path><path d="M179.0617 660.933007c7.27673 5.617951 15.905248 8.444323 25.886577 8.444323l485.60484 0c3.323699 0 9.667174-2.826372 19.020192-8.444323 9.361205-5.619998 20.171412-12.703323 32.446993-21.219277 12.249999-8.515954 25.163099-17.97335 38.668695-28.409027 13.505595-10.468422 25.790386-20.415982 36.801161-29.90817 11.010775-9.457396 20.171412-17.83418 27.448142-25.056676 7.275707-7.225565 10.923794-12.145621 10.923794-14.693654L855.862094 215.793788c0-8.026814-3.647063-14.779611-10.923794-20.240997-7.27673-5.462408-15.914458-8.201799-25.895787-8.201799L204.948277 187.350992c-9.981329 0-18.609847 2.739391-25.886577 8.201799-7.275707 5.461385-10.914584 12.215206-10.914584 20.240997l0 425.140747C168.147116 648.647193 171.785993 655.31301 179.0617 660.933007zM578.465273 273.28927c0-7.03216 2.565429-12.96529 7.687076-17.780969 5.112438-4.780887 11.193947-7.188726 18.234293-7.188726l133.481084 0c7.049556 0 13.121855 2.408863 18.234293 7.188726 5.129834 4.815679 7.695263 10.748808 7.695263 17.780969l0 11.533684c0 7.03216-2.565429 12.947893-7.695263 17.763572-5.112438 4.780887-11.18576 7.188726-18.234293 7.188726L604.386642 309.775252c-7.040347 0-13.121855-2.408863-18.234293-7.188726-5.121648-4.815679-7.687076-10.731412-7.687076-17.763572L578.465273 273.28927zM527.573185 394.267599c0-7.03216 2.556219-13.121855 7.687076-18.234293 5.112438-5.112438 11.193947-7.695263 18.234293-7.695263l182.444239 0c7.04137 0 13.131065 2.581802 18.260899 7.695263 5.095042 5.112438 7.67889 11.202133 7.67889 18.234293l0 8.655124c0 7.049556-2.582825 13.121855-7.67889 18.234293-5.129834 5.130857-11.219529 7.696286-18.260899 7.696286L553.494555 428.853301c-7.040347 0-13.121855-2.565429-18.234293-7.696286-5.130857-5.112438-7.687076-11.18576-7.687076-18.234293L527.573185 394.267599zM522.766716 512.384763c0-7.03216 2.564405-13.121855 7.686053-18.235316 5.121648-5.129834 11.203156-7.695263 18.243503-7.695263l191.090153 0c7.05058 0 13.121855 2.565429 18.252713 7.695263 5.112438 5.113461 7.677866 11.203156 7.677866 18.235316l0 12.474103c0 7.051603-2.565429 13.122879-7.677866 18.253736-5.130857 5.130857-11.202133 7.676843-18.252713 7.676843L548.696272 550.789445c-7.040347 0-13.121855-2.545986-18.243503-7.676843s-7.686053-11.202133-7.686053-18.253736L522.766716 512.384763zM258.379187 304.977993c0-14.081717 4.965082-26.087145 14.885012-35.998889 9.91993-9.946536 21.925359-14.902408 36.007075-14.902408l137.319505 0c14.719236 0 27.03882 4.955872 36.966936 14.902408 9.91993 9.911744 14.875802 21.917172 14.875802 35.998889l0 252.546853c0 14.06432-4.955872 26.070772-14.875802 35.981493-9.928117 9.94756-22.2477 14.902408-36.966936 14.902408L309.270251 608.408747c-14.081717 0-26.086122-4.954849-36.007075-14.902408-9.91993-9.911744-14.885012-21.917172-14.885012-35.981493L258.378164 304.977993z" p-id="7245"></path></svg>