<?xml version="1.0" standalone="no"?><!DOCTYPE svg PUBLIC "-//W3C//DTD SVG 1.1//EN" "http://www.w3.org/Graphics/SVG/1.1/DTD/svg11.dtd"><svg t="1577255038467" class="icon" viewBox="0 0 1024 1024" version="1.1" xmlns="http://www.w3.org/2000/svg" p-id="1135" width="16" height="16" xmlns:xlink="http://www.w3.org/1999/xlink"><defs><style type="text/css"></style></defs><path d="M599.04 450.56c-7.68 0-12.8-2.56-17.92-7.68-10.24-10.24-10.24-25.6 0-35.84l220.16-220.16c10.24-10.24 25.6-10.24 35.84 0s10.24 25.6 0 35.84l-220.16 220.16c-5.12 5.12-12.8 7.68-17.92 7.68z" fill="#333333" p-id="1136"></path><path d="M824.32 345.6c-15.36 0-25.6-10.24-25.6-25.6V225.28h-94.72c-15.36 0-25.6-10.24-25.6-25.6s10.24-25.6 25.6-25.6h120.32c15.36 0 25.6 10.24 25.6 25.6v120.32c0 15.36-10.24 25.6-25.6 25.6zM202.24 844.8c-7.68 0-12.8-2.56-17.92-7.68-10.24-10.24-10.24-25.6 0-35.84l220.16-220.16c10.24-10.24 25.6-10.24 35.84 0s10.24 25.6 0 35.84l-220.16 220.16c-5.12 5.12-10.24 7.68-17.92 7.68z" fill="#333333" p-id="1137"></path><path d="M320 849.92H199.68c-15.36 0-25.6-10.24-25.6-25.6v-120.32c0-15.36 10.24-25.6 25.6-25.6s25.6 10.24 25.6 25.6v94.72h94.72c15.36 0 25.6 10.24 25.6 25.6s-10.24 25.6-25.6 25.6zM819.2 847.36c-7.68 0-12.8-2.56-17.92-7.68l-220.16-220.16c-10.24-10.24-10.24-25.6 0-35.84s25.6-10.24 35.84 0l220.16 220.16c10.24 10.24 10.24 25.6 0 35.84-5.12 5.12-12.8 7.68-17.92 7.68z" fill="#333333" p-id="1138"></path><path d="M824.32 849.92h-120.32c-15.36 0-25.6-10.24-25.6-25.6s10.24-25.6 25.6-25.6h94.72v-94.72c0-15.36 10.24-25.6 25.6-25.6s25.6 10.24 25.6 25.6v120.32c0 15.36-10.24 25.6-25.6 25.6zM424.96 450.56c-7.68 0-12.8-2.56-17.92-7.68L184.32 222.72c-10.24-10.24-10.24-25.6 0-35.84s25.6-10.24 35.84 0l220.16 220.16c10.24 10.24 10.24 25.6 0 35.84-2.56 5.12-10.24 7.68-15.36 7.68z" fill="#333333" p-id="1139"></path><path d="M199.68 345.6c-15.36 0-25.6-10.24-25.6-25.6V199.68c0-15.36 10.24-25.6 25.6-25.6h120.32c15.36 0 25.6 10.24 25.6 25.6s-10.24 25.6-25.6 25.6H225.28v94.72c0 15.36-12.8 25.6-25.6 25.6z" fill="#333333" p-id="1140"></path></svg>