<?xml version="1.0" standalone="no"?><!DOCTYPE svg PUBLIC "-//W3C//DTD SVG 1.1//EN" "http://www.w3.org/Graphics/SVG/1.1/DTD/svg11.dtd"><svg t="1577330112042" class="icon" viewBox="0 0 1024 1024" version="1.1" xmlns="http://www.w3.org/2000/svg" p-id="7855" width="48" height="48" xmlns:xlink="http://www.w3.org/1999/xlink"><defs><style type="text/css"></style></defs><path d="M1017.1392 4.608C1021.7472 7.68 1024 12.288 1024 18.3296l0 804.5568c0 9.1136-3.7888 15.2576-11.4688 18.3296L683.4176 950.8864 676.5568 950.8864 669.696 950.8864 347.4432 841.1136 25.1904 950.8864 18.3296 950.8864c-1.536 0-3.4816-0.3072-5.7344-1.1264C10.24 948.9408 8.3968 948.5312 6.8608 948.5312 2.2528 944.0256 0 938.7008 0 932.5568L0 128c0-7.5776 3.7888-13.7216 11.4688-18.3296L340.5824 0l6.8608 0L354.304 0l322.2528 109.6704L998.8096 0C1008.0256 0 1014.0672 1.536 1017.1392 4.608zM36.5568 907.4688l292.5568-98.304L329.1136 43.4176l-292.5568 98.304L36.5568 907.4688zM365.6704 809.1648l292.5568 98.304L658.2272 141.7216l-292.5568-98.304L365.6704 809.1648zM987.4432 43.4176l-292.5568 98.304 0 765.7472 292.5568-98.304L987.4432 43.4176z" p-id="7856"></path></svg>